<svg width="100" height="100" viewBox="0 0 100 100" fill="none" xmlns="http://www.w3.org/2000/svg">
<g clip-path="url(#clip0_7_139)">
<path d="M2.30767 56.6248C0.0428219 53.2928 -0.409912 49.0504 1.10083 45.3154C4.4772 38.4277 10.1333 32.9211 17.1088 29.7305C22.1592 27.2189 27.6297 25.6613 33.2454 25.1353C30.7985 28.1463 28.3489 31.3588 25.8965 34.7734C20.9055 42.3312 16.6333 50.3398 13.1358 58.6943L11.6303 62.0701C7.85923 61.758 4.43188 59.7563 2.30767 56.6248ZM8.04321 74.1424C4.44009 79.1176 1.85395 84.7547 0.433252 90.7311C-0.452491 94.6143 1.97739 98.4805 5.86079 99.3662C6.91763 99.6072 8.01509 99.607 9.07192 99.3654C15.0391 97.9424 20.6674 95.358 25.6358 91.7596C30.5006 86.8971 30.5026 79.0113 25.6399 74.1465C20.7774 69.2816 12.8917 69.2797 8.02681 74.1424H8.04321ZM40.9592 86.501L37.5586 88.0106V89.2299C37.5668 92.1508 38.7366 94.9484 40.81 97.0059C42.7823 98.924 45.4243 99.998 48.1754 100C57.9502 99.8592 65.8756 90.9594 70.0352 82.6734C72.5834 77.5453 74.1463 71.9846 74.6426 66.2797C71.6014 68.768 68.3403 71.2562 64.8594 73.7445C57.3045 78.7369 49.2971 83.0078 40.9426 86.5012L40.9592 86.501ZM99.7661 12.2709C99.2145 30.3234 86.2172 48.2268 60.028 67.0135C52.901 71.6334 45.3825 75.6189 37.5586 78.9242V76.5895C37.52 68.5891 31.044 62.1129 23.0436 62.0744H20.7088C24.0217 54.2504 28.0141 46.7318 32.6403 39.6051C51.3811 13.4777 69.2553 0.463867 87.279 -0.125C96.2616 -0.125 99.7661 3.53281 99.7661 12.2709ZM74.8831 35.1176C74.8831 29.3916 70.2413 24.7496 64.5151 24.7496C58.7889 24.7496 54.1471 29.3914 54.1471 35.1176C54.1471 40.8436 58.7889 45.4855 64.5151 45.4855C70.2413 45.4855 74.8831 40.8436 74.8831 35.1176Z" fill="white"/>
</g>
<defs>
<clipPath id="clip0_7_139">
<rect width="100" height="100" fill="white"/>
</clipPath>
</defs>
</svg>
