<svg width="108" height="81" viewBox="0 0 108 81" fill="none" xmlns="http://www.w3.org/2000/svg">
<path d="M0 4.5C0 2.025 2.025 0 4.5 0H81C83.475 0 85.5 2.025 85.5 4.5C85.5 6.975 83.475 9 81 9H4.5C2.025 9 0 6.975 0 4.5ZM81 72H4.5C2.025 72 0 74.025 0 76.5C0 78.975 2.025 81 4.5 81H81C83.475 81 85.5 78.975 85.5 76.5C85.5 74.025 83.475 72 81 72ZM103.5 36H27C24.525 36 22.5 38.025 22.5 40.5C22.5 42.975 24.525 45 27 45H103.5C105.975 45 108 42.975 108 40.5C108 38.025 105.975 36 103.5 36Z" fill="white"/>
</svg>
