<svg width="134" height="134" viewBox="0 0 134 134" fill="none" xmlns="http://www.w3.org/2000/svg">
  <g clip-path="url(#clip0_71_6)">
    <path d="M94.0833 66.5C94.0833 68.6218 92.439 70.2661 90.3172 70.2661H43.6828C41.561 70.2661 39.9167 68.6218 39.9167 66.5C39.9167 64.3782 41.561 62.7339 43.6828 62.7339H90.3172C92.439 62.7339 94.0833 64.3782 94.0833 66.5ZM133.167 27.4167V105.583C133.167 119.994 120.644 132.517 106.233 132.517H27.4167C13.0069 132.517 0.483398 119.994 0.483398 105.583V27.4167C0.483398 13.0059 13.0069 0.482422 27.4167 0.482422H106.233C120.644 0.482422 133.167 13.0059 133.167 27.4167ZM121.75 27.4167C121.75 17.8121 113.355 9.41675 103.75 9.41675H27.4167C17.8121 9.41675 9.41675 17.8121 9.41675 27.4167V105.583C9.41675 115.188 17.8121 123.583 27.4167 123.583H103.75C113.355 123.583 121.75 115.188 121.75 105.583V27.4167Z" fill="white" stroke="black" stroke-width="0.1"/>
  </g>
  <defs>
    <clipPath id="clip0_71_6">
      <rect width="134" height="134" fill="white"/>
    </clipPath>
  </defs>
</svg>
