<svg width="133" height="133" viewBox="0 0 133 133" fill="none" xmlns="http://www.w3.org/2000/svg">
  <g clip-path="url(#clip0_71_4)">
    <path d="M94.0833 66.5C94.0833 68.2564 92.6676 69.6721 90.9112 69.6721H72.3271V88.2562C72.3271 90.0126 70.9114 91.4283 69.155 91.4283C67.3987 91.4283 65.983 90.0126 65.983 88.2562V69.6721H46.3989C44.6425 69.6721 43.2268 68.2564 43.2268 66.5C43.2268 64.7436 44.6425 63.3279 46.3989 63.3279H65.983V44.7438C65.983 42.9874 67.3987 41.5717 69.155 41.5717C70.9114 41.5717 72.3271 42.9874 72.3271 44.7438V63.3279H90.9112C92.6676 63.3279 94.0833 64.7436 94.0833 66.5ZM133 27.7083V105.292C133 120.57 120.57 133 105.292 133H27.7083C12.43 133 0 120.57 0 105.292V27.7083C0 12.43 12.43 0 27.7083 0H105.292C120.57 0 133 12.43 133 27.7083ZM121.917 27.7083C121.917 18.5424 114.458 11.0833 105.292 11.0833H27.7083C18.5424 11.0833 11.0833 18.5424 11.0833 27.7083V105.292C11.0833 114.458 18.5424 121.917 27.7083 121.917H105.292C114.458 121.917 121.917 114.458 121.917 105.292V27.7083Z" fill="white" stroke="black" stroke-width="0.1"/>
  </g>
  <defs>
    <clipPath id="clip0_71_4">
      <rect width="133" height="133" fill="white"/>
    </clipPath>
  </defs>
</svg>
