<svg width="100" height="100" viewBox="0 0 100 100" fill="none" xmlns="http://www.w3.org/2000/svg">
<path d="M6.69594 75C10.1424 80.9816 17.7856 83.0367 23.7672 79.5902C23.7713 79.5879 23.7752 79.5855 23.7793 79.5832L25.6334 78.5123C29.1334 81.5068 33.1565 83.8291 37.5 85.3623V87.5C37.5 94.4035 43.0965 100 50 100C56.9036 100 62.5 94.4035 62.5 87.5V85.3625C66.8442 83.8268 70.8674 81.5018 74.3666 78.5041L76.2291 79.5791C82.2122 83.0309 89.8608 80.9789 93.3125 74.9957C96.7643 69.0127 94.7123 61.3641 88.7291 57.9123L86.8792 56.8457C87.712 52.3143 87.712 47.6689 86.8792 43.1373L88.7291 42.0707C94.7122 38.6189 96.7643 30.9705 93.3125 24.9873C89.8608 19.0043 82.2123 16.9521 76.2291 20.4039L74.375 21.4748C70.8715 18.484 66.8457 16.166 62.5 14.6375V12.5C62.5 5.59648 56.9036 0 50 0C43.0965 0 37.5 5.59648 37.5 12.5V14.6375C33.1559 16.1732 29.1327 18.4982 25.6334 21.4959L23.7709 20.4168C17.7877 16.9648 10.1393 19.017 6.68754 25C3.23578 30.983 5.28774 38.6316 11.2709 42.0834L13.1209 43.15C12.2881 47.6814 12.2881 52.3268 13.1209 56.8584L11.2709 57.925C5.30434 61.3859 3.25903 69.0195 6.69594 75ZM50 33.3334C59.2047 33.3334 66.6666 40.7953 66.6666 50C66.6666 59.2047 59.2047 66.6666 50 66.6666C40.7954 66.6666 33.3334 59.2047 33.3334 50C33.3334 40.7953 40.7954 33.3334 50 33.3334Z" fill="white"/>
</svg>
