<svg width="100" height="100" viewBox="0 0 100 100" fill="none" xmlns="http://www.w3.org/2000/svg">
<g clip-path="url(#clip0_7_145)">
<path d="M99.8416 32.1875L94.9583 15.1083C92.4166 6.2125 84.175 0 74.925 0H70.8333V16.6667C70.8083 22.1167 62.5208 22.1125 62.5 16.6667V0H37.5V16.6667C37.475 22.1167 29.1916 22.1125 29.1666 16.6667V0H25.0708C15.8208 0 7.5833 6.2125 5.03747 15.1083L0.162467 32.1875C-0.508366 36.6292 1.4708 41.0958 4.16663 44.2417V83.3333C4.16663 92.525 11.6416 100 20.8333 100H45.8333C55.025 100 62.5 92.525 62.5 83.3333V47.6833C64.075 46.7625 65.475 45.6083 66.6666 44.2417C69.725 47.7417 74.1625 50 79.1666 50H83.3333C84.7791 50 86.1583 49.7583 87.5 49.4083V95.8333C87.525 101.283 95.8125 101.279 95.8333 95.8333V44.2417C98.5333 41.1 100.508 36.6333 99.8416 32.1875ZM54.1666 70.8333H12.5V49.4083C13.8416 49.7583 15.2208 50 16.6666 50H20.8333C25.8333 50 30.275 47.7417 33.3333 44.2417C36.3916 47.7417 40.8333 50 45.8333 50H54.1666V70.8333Z" fill="white"/>
</g>
<defs>
<clipPath id="clip0_7_145">
<rect width="100" height="100" fill="white"/>
</clipPath>
</defs>
</svg>
